<svg width="180" height="1096" viewBox="0 0 180 1096" fill="none" xmlns="http://www.w3.org/2000/svg">
<path d="M175.026 7.65062e-06L161.061 26.0871C147.096 52.1171 119.167 104.291 112.463 156.523C105.853 208.754 120.377 261.042 124.939 313.273C129.407 365.505 123.821 417.679 122.89 469.796C121.96 521.913 125.683 574.087 139.648 626.204C153.613 678.321 177.819 730.495 179.867 782.727C181.822 834.958 161.713 887.246 154.079 939.478C146.444 991.709 151.472 1043.88 153.892 1069.91L156.406 1096L-2.23969e-07 1096L9.16333e-07 1069.91C2.05414e-06 1043.88 4.33475e-06 991.709 6.61785e-06 939.478C8.90095e-06 887.246 1.11865e-05 834.958 1.34696e-05 782.727C1.57527e-05 730.495 1.80334e-05 678.321 2.03115e-05 626.204C2.25896e-05 574.087 2.48702e-05 521.913 2.71483e-05 469.796C2.94264e-05 417.679 3.1707e-05 365.505 3.39901e-05 313.273C3.62732e-05 261.042 3.85588e-05 208.754 4.08419e-05 156.523C4.3125e-05 104.291 4.54056e-05 52.1171 4.65434e-05 26.0871L4.76837e-05 0L175.026 7.65062e-06Z" fill="#AA00FF"/>
</svg>
