<svg width="178" height="1080" viewBox="0 0 178 1080" fill="none" xmlns="http://www.w3.org/2000/svg">
<path d="M173.081 7.56561e-06L159.271 25.7063C145.462 51.3563 117.842 102.769 111.214 154.238C104.677 205.706 119.039 257.231 123.55 308.7C127.97 360.169 122.446 411.581 121.525 462.938C120.604 514.294 124.287 565.706 138.097 617.063C151.906 668.419 175.843 719.831 177.868 771.3C179.802 822.769 159.916 874.294 152.367 925.763C144.817 977.231 149.789 1028.64 152.182 1054.29L154.668 1080L0 1080L1.12365e-06 1054.29C2.24485e-06 1028.64 4.49217e-06 977.231 6.74194e-06 925.763C8.99171e-06 874.294 1.12439e-05 822.769 1.34937e-05 771.3C1.57435e-05 719.831 1.79908e-05 668.419 2.02356e-05 617.062C2.24805e-05 565.706 2.47278e-05 514.294 2.69727e-05 462.938C2.92175e-05 411.581 3.14648e-05 360.169 3.37146e-05 308.7C3.59644e-05 257.231 3.82166e-05 205.706 4.04664e-05 154.238C4.27161e-05 102.769 4.49634e-05 51.3563 4.60846e-05 25.7063L4.72083e-05 0L173.081 7.56561e-06Z" fill="#AA00FF"/>
</svg>
