<svg width="62" height="62" viewBox="0 0 62 62" fill="none" xmlns="http://www.w3.org/2000/svg">
<g clip-path="url(#clip0_96_82)">
<path d="M31 5.58242C39.2828 5.58242 40.2637 5.61875 43.5211 5.76406C46.5484 5.89727 48.1832 6.40586 49.273 6.82969C50.7141 7.38672 51.7555 8.06485 52.8332 9.14258C53.923 10.2324 54.5891 11.2617 55.1461 12.7027C55.5699 13.7926 56.0785 15.4395 56.2117 18.4547C56.357 21.7242 56.3934 22.7051 56.3934 30.9758C56.3934 39.2586 56.357 40.2395 56.2117 43.4969C56.0785 46.5242 55.5699 48.159 55.1461 49.2488C54.5891 50.6899 53.9109 51.7313 52.8332 52.809C51.7434 53.8988 50.7141 54.5649 49.273 55.1219C48.1832 55.5457 46.5363 56.0543 43.5211 56.1875C40.2516 56.3328 39.2707 56.3691 31 56.3691C22.7172 56.3691 21.7363 56.3328 18.4789 56.1875C15.4516 56.0543 13.8168 55.5457 12.727 55.1219C11.2859 54.5649 10.2445 53.8867 9.1668 52.809C8.07695 51.7192 7.41094 50.6899 6.85391 49.2488C6.43008 48.159 5.92148 46.5121 5.78828 43.4969C5.64297 40.2274 5.60664 39.2465 5.60664 30.9758C5.60664 22.693 5.64297 21.7121 5.78828 18.4547C5.92148 15.4273 6.43008 13.7926 6.85391 12.7027C7.41094 11.2617 8.08906 10.2203 9.1668 9.14258C10.2566 8.05274 11.2859 7.38672 12.727 6.82969C13.8168 6.40586 15.4637 5.89727 18.4789 5.76406C21.7363 5.61875 22.7172 5.58242 31 5.58242ZM31 0C22.584 0 21.5305 0.0363281 18.2246 0.181641C14.9309 0.326953 12.6664 0.859766 10.7047 1.62266C8.6582 2.42188 6.92656 3.47539 5.20703 5.20703C3.47539 6.92656 2.42188 8.65821 1.62266 10.6926C0.859766 12.6664 0.326953 14.9188 0.181641 18.2125C0.0363281 21.5305 0 22.584 0 31C0 39.416 0.0363281 40.4695 0.181641 43.7754C0.326953 47.0691 0.859766 49.3336 1.62266 51.2953C2.42188 53.3418 3.47539 55.0734 5.20703 56.793C6.92656 58.5125 8.6582 59.5781 10.6926 60.3652C12.6664 61.1281 14.9187 61.6609 18.2125 61.8063C21.5184 61.9516 22.5719 61.9879 30.9879 61.9879C39.4039 61.9879 40.4574 61.9516 43.7633 61.8063C47.057 61.6609 49.3215 61.1281 51.2832 60.3652C53.3176 59.5781 55.0492 58.5125 56.7687 56.793C58.4883 55.0734 59.5539 53.3418 60.341 51.3074C61.1039 49.3336 61.6367 47.0813 61.782 43.7875C61.9273 40.4816 61.9637 39.4281 61.9637 31.0121C61.9637 22.5961 61.9273 21.5426 61.782 18.2367C61.6367 14.943 61.1039 12.6785 60.341 10.7168C59.5781 8.6582 58.5246 6.92656 56.793 5.20703C55.0734 3.4875 53.3418 2.42188 51.3074 1.63477C49.3336 0.871875 47.0812 0.339063 43.7875 0.19375C40.4695 0.0363281 39.416 0 31 0Z" fill="#AA00FF"/>
<path d="M31 15.0762C22.2086 15.0762 15.0762 22.2086 15.0762 31C15.0762 39.7914 22.2086 46.9238 31 46.9238C39.7914 46.9238 46.9238 39.7914 46.9238 31C46.9238 22.2086 39.7914 15.0762 31 15.0762ZM31 41.3293C25.2965 41.3293 20.6707 36.7035 20.6707 31C20.6707 25.2965 25.2965 20.6707 31 20.6707C36.7035 20.6707 41.3293 25.2965 41.3293 31C41.3293 36.7035 36.7035 41.3293 31 41.3293Z" fill="#AA00FF"/>
<path d="M51.2711 14.4463C51.2711 16.5049 49.6 18.1639 47.5535 18.1639C45.4949 18.1639 43.8359 16.4928 43.8359 14.4463C43.8359 12.3877 45.507 10.7288 47.5535 10.7288C49.6 10.7288 51.2711 12.3999 51.2711 14.4463Z" fill="#AA00FF"/>
</g>
<defs>
<clipPath id="clip0_96_82">
<rect width="62" height="62" fill="white"/>
</clipPath>
</defs>
</svg>
